<svg width="415" height="252" viewBox="0 0 415 252" fill="none" xmlns="http://www.w3.org/2000/svg">
<path d="M4.35645 208.492C20.5209 208.492 37.2218 196.738 51.6664 188.578C67.3356 179.726 82.4057 167.464 98.5507 160.25C106.124 156.866 100.733 171.846 99.5437 175.582C93.0589 195.965 83.7505 215.526 79.187 236.913C75.8814 252.405 83.0671 248.872 91.6706 243.364C116.611 227.397 140.458 208.523 165.366 192.411C167.525 191.015 172.488 186.774 175.225 188.578C177.617 190.154 172.163 205.415 171.608 207.65C170.062 213.878 167.783 220.196 166.785 226.629C165.756 233.259 176.608 224.3 177.85 223.45C199.909 208.36 218.953 179.773 242.821 169.786C253.415 165.353 244.233 181.337 241.686 187.736C240.006 191.958 224.828 225.092 234.026 226.629C252.146 229.657 272.507 215.403 288.216 205.219C293.342 201.896 299.425 196.899 305.381 196.899C308.362 196.899 305.489 204.029 305.097 205.874C299.316 233.089 353.594 186.103 357.869 195.964C358.38 197.143 357.773 198.826 358.01 200.077C358.778 204.122 372.367 193.68 373.331 192.972C385.343 184.151 396.823 172.563 410.356 168.103" stroke="#FF405E" stroke-width="7.30731" stroke-linecap="round"/>
<path d="M63.3435 22.0124C73.7463 21.4415 81.5166 23.1225 86.6546 27.0552C91.7925 30.9562 94.5835 36.9981 95.0275 45.1808C95.3764 51.397 95.0909 57.1059 94.1712 62.3073C93.2514 67.4769 91.9035 71.8061 90.1274 75.2948C88.3514 78.7519 86.2264 81.7014 83.7526 84.1435C81.3105 86.5539 78.7415 88.2983 76.0456 89.3766C73.3815 90.455 70.6381 90.9941 67.8154 90.9941L46.5976 91.0893L47.2636 22.8687L63.3435 22.0124ZM65.5795 75.0094C68.8462 75.0094 71.3834 72.7417 73.1912 68.2064C75.0307 63.6393 75.7126 57.7243 75.2369 50.4614C74.888 44.9746 73.9524 41.248 72.4301 39.2816C70.9394 37.3153 68.196 36.6651 64.1998 37.3311L65.5795 75.0094ZM100.07 22.7736H140.888L140.984 38.2826H118.576V58.5489H120.337L123.572 48.6061L140.508 52.3168C140.508 54.9492 140.048 57.2169 139.128 59.1198C138.208 60.991 136.987 62.3865 135.465 63.3063C133.943 64.2261 132.214 64.8287 130.28 65.1141C128.377 65.3678 126.41 65.2727 124.38 64.8287C122.382 64.3846 120.448 63.6552 118.576 62.6403V74.5337H141.221L142.173 90.9941H99.1188L100.07 22.7736ZM190.65 75.4851C190.65 80.6231 188.827 84.7937 185.18 87.997C181.532 91.1686 176.822 92.7544 171.05 92.7544C169.306 92.7544 167.308 92.5641 165.056 92.1835C162.804 91.8029 160.235 91.4699 157.349 91.1844C154.463 90.899 151.196 90.8356 147.549 90.9941L145.027 71.822C153.591 70.8071 159.918 71.3462 164.009 73.4395C168.132 75.5327 170.939 79.6558 172.43 85.8086L174.761 85.1426C174.444 82.0662 173.492 78.9739 171.906 75.8657C170.352 72.7259 168.307 70.2362 165.769 68.3967L158.205 62.8306C150.213 56.9314 146.217 49.7954 146.217 41.4224C146.217 38.79 146.566 36.3003 147.263 33.9534C147.961 31.5747 148.976 29.4339 150.308 27.5309C151.672 25.5963 153.464 24.0739 155.684 22.9639C157.936 21.8221 160.489 21.2512 163.343 21.2512C165.627 21.2512 168.687 21.5684 172.525 22.2027C176.394 22.837 180.359 23.0273 184.418 22.7736L188.7 39.5671C184.577 40.8357 180.882 41.5017 177.615 41.5652C174.38 41.5969 171.621 41.0577 169.337 39.9477C167.086 38.8059 165.23 37.2201 163.771 35.1903C162.344 33.1288 161.266 30.6232 160.536 27.6737L158.586 28.3397C158.808 30.2109 159.236 32.1139 159.87 34.0485C160.536 35.9832 161.662 38.1081 163.248 40.4234C164.866 42.7069 166.816 44.594 169.1 46.0847L177.092 51.4605C186.131 57.5182 190.65 65.5264 190.65 75.4851ZM213.819 90.9941H194.932L195.598 22.7736H213.153L213.819 90.9941ZM246.359 21.2512C248.865 21.2512 251.148 21.3147 253.21 21.4415C255.271 21.5684 257.888 21.7745 261.059 22.06C264.231 22.3454 267.117 22.5833 269.718 22.7736L265.626 48.9866C259.632 48.2572 254.685 45.9102 250.783 41.9457C246.914 37.9813 244.757 33.3191 244.313 27.9591L241.935 27.7688C240.92 37.125 240.412 46.0529 240.412 54.5528V59.0247C240.412 64.1943 241.031 68.2857 242.268 71.2987C243.505 74.3117 245.344 75.8182 247.786 75.8182C248.801 75.8182 249.626 75.501 250.26 74.8667C250.894 74.2324 251.212 73.4078 251.212 72.3929C251.212 69.6019 249.515 67.7782 246.121 66.9219V52.1265H271.002L271.859 69.253L255.208 68.587V71.0132C255.303 71.0132 255.414 71.0291 255.541 71.0608C255.668 71.0608 255.779 71.0608 255.874 71.0608C255.969 71.0608 256.08 71.0767 256.207 71.1084C258.3 71.2669 259.664 71.378 260.298 71.4414C260.933 71.5048 262.138 71.7268 263.914 72.1074C265.69 72.488 266.895 72.932 267.529 73.4395C268.195 73.9152 269.115 74.6447 270.289 75.6279C271.494 76.611 272.318 77.7687 272.762 79.1007C273.238 80.4011 273.682 82.0662 274.095 84.096C274.507 86.1258 274.713 88.4252 274.713 90.9941H257.634C257.634 85.317 256.08 81.0671 252.972 78.2444L251.212 79.4813C252.639 81.2891 253.352 83.1128 253.352 84.9523C253.352 86.9187 252.639 88.6313 251.212 90.0902C249.784 91.5492 247.517 92.2786 244.409 92.2786C235.909 92.2786 229.486 89.2656 225.141 83.2396C220.828 77.2136 218.671 68.8883 218.671 58.2635V56.5984C218.671 45.7516 221.034 37.1567 225.76 30.8135C230.517 24.4387 237.384 21.2512 246.359 21.2512ZM309.251 22.7736H328.757L329.708 90.9941H308.3L291.411 36.7127L289.08 37.4263C291.744 46.5604 293.949 56.2337 295.693 66.4462C297.469 76.6269 298.484 84.8096 298.738 90.9941H278.281L279.233 22.7736H300.688L316.578 74.2482L318.909 73.5346C316.435 64.3371 314.278 54.9016 312.439 45.2283C310.599 35.555 309.537 28.0701 309.251 22.7736Z" fill="white"/>
<path d="M53.5433 140.902C53.5433 142.932 53.2579 144.755 52.687 146.373C52.1161 147.959 51.3391 149.323 50.3559 150.464C49.3727 151.574 48.0724 152.573 46.4549 153.461C44.8691 154.349 43.2199 155.079 41.5072 155.65C39.7946 156.221 37.733 156.792 35.3226 157.362L36.0362 159.884C38.9541 159.472 41.6499 159.598 44.1238 160.264C46.6293 160.899 48.6908 161.945 50.3083 163.404C51.9575 164.863 53.2262 166.608 54.1142 168.637C55.034 170.635 55.4939 172.792 55.4939 175.107C55.4939 177.676 55.1133 180.087 54.3521 182.339C53.5909 184.559 52.465 186.573 50.9744 188.38C49.4837 190.157 47.4698 191.568 44.9325 192.614C42.3953 193.661 39.4933 194.184 36.2265 194.184L8.06297 193.994L9.01444 125.774H30.4701C45.8523 125.774 53.5433 130.816 53.5433 140.902ZM25.9982 138.951L26.474 153.557H26.8545C29.2015 153.557 31.0093 152.875 32.2779 151.511C33.5466 150.147 34.1809 148.165 34.1809 145.564C34.1809 141.156 31.7388 138.951 26.8545 138.951H25.9982ZM26.9497 164.261L27.5206 180.341H27.9487C30.5494 180.341 32.5317 179.595 33.8954 178.105C35.2592 176.614 35.9411 174.441 35.9411 171.587C35.9411 169.018 35.2751 167.163 33.943 166.021C32.6109 164.847 30.6129 164.261 27.9487 164.261H26.9497ZM78.3768 126.915C82.817 125.012 87.4792 124.061 92.3634 124.061C97.2476 124.061 101.91 125.012 106.35 126.915C110.79 128.787 114.612 131.324 117.815 134.527C121.019 137.73 123.572 141.552 125.475 145.992C127.378 150.433 128.329 155.095 128.329 159.979C128.329 164.863 127.378 169.525 125.475 173.966C123.572 178.406 121.019 182.228 117.815 185.431C114.612 188.634 110.79 191.187 106.35 193.09C101.91 194.993 97.2476 195.945 92.3634 195.945C87.4792 195.945 82.817 194.993 78.3768 193.09C73.9366 191.187 70.1148 188.634 66.9115 185.431C63.7082 182.228 61.1551 178.406 59.2522 173.966C57.3492 169.525 56.3978 164.863 56.3978 159.979C56.3978 155.095 57.3492 150.433 59.2522 145.992C61.1551 141.552 63.7082 137.73 66.9115 134.527C70.1148 131.324 73.9366 128.787 78.3768 126.915ZM80.2321 172.11C83.594 175.472 87.6378 177.153 92.3634 177.153C97.089 177.153 101.133 175.472 104.495 172.11C107.857 168.748 109.537 164.705 109.537 159.979C109.537 155.253 107.857 151.225 104.495 147.895C101.133 144.533 97.089 142.853 92.3634 142.853C87.6378 142.853 83.594 144.533 80.2321 147.895C76.902 151.225 75.2369 155.253 75.2369 159.979C75.2369 164.705 76.902 168.748 80.2321 172.11ZM152.211 126.915C156.651 125.012 161.313 124.061 166.198 124.061C171.082 124.061 175.744 125.012 180.184 126.915C184.624 128.787 188.446 131.324 191.65 134.527C194.853 137.73 197.406 141.552 199.309 145.992C201.212 150.433 202.163 155.095 202.163 159.979C202.163 164.863 201.212 169.525 199.309 173.966C197.406 178.406 194.853 182.228 191.65 185.431C188.446 188.634 184.624 191.187 180.184 193.09C175.744 194.993 171.082 195.945 166.198 195.945C161.313 195.945 156.651 194.993 152.211 193.09C147.771 191.187 143.949 188.634 140.746 185.431C137.542 182.228 134.989 178.406 133.086 173.966C131.183 169.525 130.232 164.863 130.232 159.979C130.232 155.095 131.183 150.433 133.086 145.992C134.989 141.552 137.542 137.73 140.746 134.527C143.949 131.324 147.771 128.787 152.211 126.915ZM154.066 172.11C157.428 175.472 161.472 177.153 166.198 177.153C170.923 177.153 174.967 175.472 178.329 172.11C181.691 168.748 183.372 164.705 183.372 159.979C183.372 155.253 181.691 151.225 178.329 147.895C174.967 144.533 170.923 142.853 166.198 142.853C161.472 142.853 157.428 144.533 154.066 147.895C150.736 151.225 149.071 155.253 149.071 159.979C149.071 164.705 150.736 168.748 154.066 172.11ZM248.024 178.485C248.024 183.623 246.201 187.794 242.553 190.997C238.906 194.169 234.196 195.754 228.424 195.754C226.68 195.754 224.681 195.564 222.43 195.183C220.178 194.803 217.609 194.47 214.723 194.184C211.837 193.899 208.57 193.836 204.923 193.994L202.401 174.822C210.964 173.807 217.292 174.346 221.383 176.439C225.506 178.533 228.313 182.656 229.804 188.809L232.135 188.143C231.817 185.066 230.866 181.974 229.28 178.866C227.726 175.726 225.68 173.236 223.143 171.397L215.579 165.831C207.587 159.931 203.59 152.795 203.59 144.422C203.59 141.79 203.939 139.3 204.637 136.953C205.335 134.575 206.35 132.434 207.682 130.531C209.046 128.596 210.838 127.074 213.058 125.964C215.309 124.822 217.863 124.251 220.717 124.251C223.001 124.251 226.061 124.568 229.899 125.203C233.768 125.837 237.732 126.027 241.792 125.774L246.074 142.567C241.951 143.836 238.256 144.502 234.989 144.565C231.754 144.597 228.995 144.058 226.711 142.948C224.459 141.806 222.604 140.22 221.145 138.19C219.718 136.129 218.64 133.623 217.91 130.674L215.96 131.34C216.182 133.211 216.61 135.114 217.244 137.049C217.91 138.983 219.036 141.108 220.622 143.423C222.239 145.707 224.19 147.594 226.473 149.085L234.466 154.46C243.505 160.518 248.024 168.526 248.024 178.485ZM248.072 142.948L248.548 125.774H291.792L292.268 142.948H278.281L279.899 193.994H260.441L261.583 142.948H248.072ZM295.788 125.774H336.606L336.701 141.283H314.294V161.549H316.054L319.289 151.606L336.226 155.317C336.226 157.949 335.766 160.217 334.846 162.12C333.926 163.991 332.705 165.387 331.183 166.306C329.661 167.226 327.932 167.829 325.997 168.114C324.094 168.368 322.128 168.273 320.098 167.829C318.1 167.385 316.165 166.655 314.294 165.64V177.534H336.939L337.891 193.994H294.837L295.788 125.774ZM358.966 170.826C360.171 174.663 361.059 178.025 361.63 180.911C362.201 183.766 362.534 185.954 362.629 187.477C362.724 188.999 362.772 191.171 362.772 193.994H342.315L343.267 125.774L363.057 125.583C381.833 125.393 391.221 131.054 391.221 142.567C391.221 149.069 388.477 154.127 382.991 157.743C377.535 161.327 369.559 163.119 359.061 163.119V165.64H376.045C378.011 169.605 380.215 172.221 382.658 173.49C385.131 174.727 388.668 175.123 393.266 174.679V193.994C390.031 193.994 387.193 193.804 384.751 193.423C382.34 193.043 379.962 192.345 377.615 191.33C375.268 190.315 373.175 188.935 371.335 187.191C369.527 185.415 367.799 183.131 366.15 180.341C364.5 177.55 362.978 174.204 361.582 170.302L358.966 170.826ZM362.201 155.031C364.77 155.031 366.736 154.318 368.1 152.891C369.496 151.463 370.193 149.449 370.193 146.849C370.193 142.218 367.529 139.903 362.201 139.903H360.25L360.821 155.031H362.201Z" fill="#D2F65A"/>
</svg>
