<svg width="612" height="404" viewBox="0 0 612 404" fill="none" xmlns="http://www.w3.org/2000/svg">
<path d="M279.567 77.1223C92.5768 128.706 11.648 196.468 26.0165 248.554C40.385 300.64 149.386 316.008 331.6 265.742C513.815 215.476 599.519 146.396 585.151 94.3104C571.339 44.2423 456.324 16.6909 242.706 120.274" stroke="#D5FD51" stroke-width="6.08671"/>
<path d="M181.501 370.001L173.499 400.001M173.499 400.001L142.499 385.001M173.499 400.001C166.999 364.001 115.952 313.582 122.828 296.605M122.828 296.605C136.348 263.22 153.534 262.693 159.291 270.771C165.297 279.199 158.86 296.995 122.828 296.605ZM122.828 296.605C108.77 296.453 90.209 293.533 66.1249 286.209" stroke="#D5FD51" stroke-width="4.675"/>
</svg>
