<svg width="60" height="60" viewBox="0 0 60 60" fill="none" xmlns="http://www.w3.org/2000/svg">
<circle cx="30" cy="30" r="30" fill="#D2F65A"/>
<path d="M45 26L39.7581 31.2889C35.5777 35.5067 33.4876 37.6156 30.94 37.9403C30.3158 38.0199 29.6842 38.0199 29.06 37.9403C26.5124 37.6156 24.4223 35.5067 20.2419 31.2889L15 26" stroke="#2D264B" stroke-width="4.5" stroke-linecap="round"/>
<path d="M45 14L39.7581 19.2889C35.5777 23.5067 33.4876 25.6156 30.94 25.9403C30.3158 26.0199 29.6842 26.0199 29.06 25.9403C26.5124 25.6156 24.4223 23.5067 20.2419 19.2889L15 14" stroke="#2D264B" stroke-width="4.5" stroke-linecap="round"/>
<path d="M45 38.0005L39.7581 43.2894C35.5777 47.5072 33.4876 49.6161 30.94 49.9408C30.3158 50.0204 29.6842 50.0204 29.06 49.9408C26.5124 49.6161 24.4223 47.5072 20.2419 43.2894L15 38.0005" stroke="#2D264B" stroke-width="4.5" stroke-linecap="round"/>
</svg>
