<svg width="331" height="172" viewBox="0 0 331 172" fill="none" xmlns="http://www.w3.org/2000/svg">
<path d="M236.969 21.5893C267.338 34.2622 296.879 54.5719 323.863 82.1897C246.088 190.087 85.4312 194.222 7 92.1709C33.2357 55.7741 64.7757 31.1913 98.8028 17.8859M236.969 21.5893C252.267 46.5347 254.511 79.6921 236.636 109.657C210.752 153.045 157.237 158.44 119.996 132.26C82.7542 106.081 73.0716 66.4621 94.7354 24.7773C95.9817 22.3791 97.3409 20.0818 98.8028 17.8859M236.969 21.5893C190.809 2.32755 142.733 0.708243 98.8028 17.8859M195.973 83.3144L179.916 62.3185L187.574 36.6293L166.083 57.1312L140.868 50.3136L155.708 68.2467L144.839 100.111L171.518 77.8802L195.973 83.3144Z" stroke="#FF405E" stroke-width="10.4575"/>
</svg>
