<svg width="316" height="339" viewBox="0 0 316 339" fill="none" xmlns="http://www.w3.org/2000/svg">
<path d="M145.346 227.996C151.739 217.474 173.95 204.453 192.012 217.308M269.773 199.816C258.689 192.325 236.879 195.179 228.647 210.953M164.654 264.821C185.034 315.391 274.421 291.135 267.51 237.616C267.51 237.616 247.963 247.099 220.074 254.476C192.185 261.852 164.654 264.821 164.654 264.821ZM305.569 214.716C311.352 281.017 258.123 328.082 197.936 328.879C137.75 329.675 96.7333 294.852 87.7409 233.628C78.7486 172.404 129.88 117.402 186.728 112.466C243.577 107.531 299.785 148.416 305.569 214.716Z" stroke="#FF405E" stroke-width="18.4796"/>
<path d="M9 62.9198L72.5766 177.325L221.847 135.554L235.684 19.164C235.684 19.164 201.154 69.0396 171.167 63.2941C142.451 57.7922 126.845 3 126.845 3C126.845 3 119.614 69.5562 87.4686 82.8775C58.2599 94.9816 9 62.9198 9 62.9198Z" stroke="#EBFC67" stroke-width="18.4796"/>
</svg>
