<svg width="24" height="24" viewBox="0 0 24 24" fill="none" xmlns="http://www.w3.org/2000/svg">
<path d="M21.6151 0.351562C22.4784 0.351562 23.2401 1.11328 23.2401 2.02734V21.4766C23.2401 22.3906 22.4784 23.1016 21.6151 23.1016H2.06436C1.20107 23.1016 0.490137 22.3906 0.490137 21.4766V2.02734C0.490137 1.11328 1.20107 0.351562 2.06436 0.351562H21.6151ZM7.34561 19.8516V9.03516H3.99404V19.8516H7.34561ZM5.66982 7.51172C6.73623 7.51172 7.59951 6.64844 7.59951 5.58203C7.59951 4.51562 6.73623 3.60156 5.66982 3.60156C4.55264 3.60156 3.68936 4.51562 3.68936 5.58203C3.68936 6.64844 4.55264 7.51172 5.66982 7.51172ZM19.9901 19.8516V13.9102C19.9901 11.0156 19.33 8.73047 15.9276 8.73047C14.3026 8.73047 13.1854 9.64453 12.7284 10.5078H12.6776V9.03516H9.47842V19.8516H12.83V14.5195C12.83 13.0977 13.0839 11.7266 14.8612 11.7266C16.5878 11.7266 16.5878 13.3516 16.5878 14.5703V19.8516H19.9901Z" fill="white"/>
</svg>
