<svg width="24" height="24" viewBox="0 0 24 24" fill="none" xmlns="http://www.w3.org/2000/svg">
<path d="M12.0851 5.88672C15.2843 5.88672 17.925 8.52734 17.925 11.7266C17.925 14.9766 15.2843 17.5664 12.0851 17.5664C8.83511 17.5664 6.24526 14.9766 6.24526 11.7266C6.24526 8.52734 8.83511 5.88672 12.0851 5.88672ZM12.0851 15.5352C14.1671 15.5352 15.8429 13.8594 15.8429 11.7266C15.8429 9.64453 14.1671 7.96875 12.0851 7.96875C9.9523 7.96875 8.27651 9.64453 8.27651 11.7266C8.27651 13.8594 10.0031 15.5352 12.0851 15.5352ZM19.4992 5.68359C19.4992 6.44531 18.8898 7.05469 18.1281 7.05469C17.3664 7.05469 16.757 6.44531 16.757 5.68359C16.757 4.92188 17.3664 4.3125 18.1281 4.3125C18.8898 4.3125 19.4992 4.92188 19.4992 5.68359ZM23.3585 7.05469C23.4601 8.93359 23.4601 14.5703 23.3585 16.4492C23.257 18.2773 22.8507 19.8516 21.5304 21.2227C20.2101 22.543 18.5851 22.9492 16.757 23.0508C14.8781 23.1523 9.24136 23.1523 7.36245 23.0508C5.53433 22.9492 3.96011 22.543 2.58901 21.2227C1.2687 19.8516 0.862452 18.2773 0.760889 16.4492C0.659327 14.5703 0.659327 8.93359 0.760889 7.05469C0.862452 5.22656 1.2687 3.60156 2.58901 2.28125C3.96011 0.960938 5.53433 0.554688 7.36245 0.453125C9.24136 0.351562 14.8781 0.351562 16.757 0.453125C18.5851 0.554688 20.2101 0.960938 21.5304 2.28125C22.8507 3.60156 23.257 5.22656 23.3585 7.05469ZM20.921 18.4297C21.5304 16.957 21.3781 13.4023 21.3781 11.7266C21.3781 10.1016 21.5304 6.54688 20.921 5.02344C20.5148 4.05859 19.7531 3.24609 18.7882 2.89062C17.2648 2.28125 13.7101 2.43359 12.0851 2.43359C10.4093 2.43359 6.85464 2.28125 5.38198 2.89062C4.36636 3.29688 3.60464 4.05859 3.19839 5.02344C2.58901 6.54688 2.74136 10.1016 2.74136 11.7266C2.74136 13.4023 2.58901 16.957 3.19839 18.4297C3.60464 19.4453 4.36636 20.207 5.38198 20.6133C6.85464 21.2227 10.4093 21.0703 12.0851 21.0703C13.7101 21.0703 17.2648 21.2227 18.7882 20.6133C19.7531 20.207 20.5656 19.4453 20.921 18.4297Z" fill="white"/>
</svg>
