<svg width="16" height="13" viewBox="0 0 16 13" fill="none" xmlns="http://www.w3.org/2000/svg">
<path d="M15.6875 4.14453C15.8125 4.05078 16 4.14453 16 4.30078V10.6758C16 11.5195 15.3125 12.1758 14.5 12.1758H1.5C0.65625 12.1758 0 11.5195 0 10.6758V4.30078C0 4.14453 0.15625 4.05078 0.28125 4.14453C1 4.70703 1.90625 5.39453 5.09375 7.70703C5.75 8.17578 6.875 9.20703 8 9.20703C9.09375 9.20703 10.25 8.17578 10.875 7.70703C14.0625 5.39453 14.9688 4.70703 15.6875 4.14453ZM8 8.17578C7.25 8.20703 6.21875 7.26953 5.6875 6.89453C1.53125 3.89453 1.21875 3.61328 0.28125 2.86328C0.09375 2.73828 0 2.51953 0 2.26953V1.67578C0 0.863281 0.65625 0.175781 1.5 0.175781H14.5C15.3125 0.175781 16 0.863281 16 1.67578V2.26953C16 2.51953 15.875 2.73828 15.6875 2.86328C14.75 3.61328 14.4375 3.89453 10.2812 6.89453C9.75 7.26953 8.71875 8.20703 8 8.17578Z" fill="#B8B8B8"/>
</svg>
