<svg width="17" height="17" viewBox="0 0 17 17" fill="none" xmlns="http://www.w3.org/2000/svg">
<path d="M16.4062 0.957031C16.75 1.05078 17 1.33203 17 1.67578C17 9.70703 10.5 16.1758 2.5 16.1758C2.125 16.1758 1.84375 15.957 1.75 15.6133L1 12.3633C0.9375 12.0195 1.09375 11.6445 1.4375 11.4883L4.9375 9.98828C5.25 9.86328 5.59375 9.95703 5.8125 10.207L7.375 12.1133C9.8125 10.957 11.7812 8.95703 12.9062 6.58203L11 5.01953C10.75 4.80078 10.6562 4.45703 10.7812 4.14453L12.2812 0.644531C12.4375 0.300781 12.8125 0.113281 13.1562 0.207031L16.4062 0.957031Z" fill="#B8B8B8"/>
</svg>
