<svg width="27" height="26" viewBox="0 0 27 26" fill="none" xmlns="http://www.w3.org/2000/svg">
<path d="M13.475 0.132812C20.4321 0.132812 26.0688 5.76953 26.0688 12.7266C26.0688 19.6836 20.4321 25.3203 13.475 25.3203C6.518 25.3203 0.881279 19.6836 0.881279 12.7266C0.881279 5.76953 6.518 0.132812 13.475 0.132812ZM19.6196 8.76562C19.8227 7.95312 19.3149 7.59766 18.7563 7.80078L6.61956 12.4727C5.80706 12.7773 5.80706 13.2852 6.46722 13.4883L9.56487 14.4531L16.7758 9.88281C17.1313 9.67969 17.436 9.83203 17.1821 10.0352L11.3422 15.3164L11.1391 18.5156C11.4438 18.5156 11.5961 18.3633 11.7485 18.2109L13.2719 16.7383L16.4203 19.0742C17.0297 19.3789 17.436 19.2266 17.5883 18.5156L19.6196 8.76562Z" fill="white"/>
</svg>
