<svg width="29" height="21" viewBox="0 0 29 21" fill="none" xmlns="http://www.w3.org/2000/svg">
<path d="M27.9489 4.07422C28.5583 6.20703 28.5583 10.7773 28.5583 10.7773C28.5583 10.7773 28.5583 15.2969 27.9489 17.4805C27.6442 18.6992 26.6793 19.6133 25.5114 19.918C23.3278 20.4766 14.695 20.4766 14.695 20.4766C14.695 20.4766 6.01138 20.4766 3.82778 19.918C2.65981 19.6133 1.69497 18.6992 1.39028 17.4805C0.780909 15.2969 0.780909 10.7773 0.780909 10.7773C0.780909 10.7773 0.780909 6.20703 1.39028 4.07422C1.69497 2.85547 2.65981 1.89062 3.82778 1.58594C6.01138 0.976562 14.695 0.976562 14.695 0.976562C14.695 0.976562 23.3278 0.976562 25.5114 1.58594C26.6793 1.89062 27.6442 2.85547 27.9489 4.07422ZM11.8512 14.8906L19.0622 10.7773L11.8512 6.66406V14.8906Z" fill="white"/>
</svg>
